<svg width="13" height="13" viewBox="0 0 13 13" fill="none" xmlns="http://www.w3.org/2000/svg">
<path d="M11.6429 4.87029H7.78571V0.996169C7.78571 0.520783 7.40188 0.135254 6.92857 0.135254H6.07143C5.59812 0.135254 5.21429 0.520783 5.21429 0.996169V4.87029H1.35714C0.883839 4.87029 0.5 5.25582 0.5 5.7312V6.59212C0.5 7.06751 0.883839 7.45304 1.35714 7.45304H5.21429V11.3272C5.21429 11.8025 5.59812 12.1881 6.07143 12.1881H6.92857C7.40188 12.1881 7.78571 11.8025 7.78571 11.3272V7.45304H11.6429C12.1162 7.45304 12.5 7.06751 12.5 6.59212V5.7312C12.5 5.25582 12.1162 4.87029 11.6429 4.87029Z" fill="black"/>
</svg>
