<svg width="17" height="13" viewBox="0 0 17 13" fill="none" xmlns="http://www.w3.org/2000/svg">
<path d="M15.2464 12.7537H2.14237C1.30731 12.7537 0.630371 12.0821 0.630371 11.2537V2.25366C0.630371 1.42522 1.30731 0.753662 2.14237 0.753662H15.2464C16.0814 0.753662 16.7584 1.42522 16.7584 2.25366V11.2537C16.7584 12.0821 16.0814 12.7537 15.2464 12.7537ZM4.15837 2.50366C3.18414 2.50366 2.39437 3.28716 2.39437 4.25366C2.39437 5.22016 3.18414 6.00366 4.15837 6.00366C5.1326 6.00366 5.92237 5.22016 5.92237 4.25366C5.92237 3.28716 5.1326 2.50366 4.15837 2.50366ZM2.64637 10.7537H14.7424V7.25366L11.9856 4.51882C11.838 4.37238 11.5987 4.37238 11.4511 4.51882L7.18237 8.75366L5.43365 7.01882C5.28604 6.87238 5.0467 6.87238 4.89906 7.01882L2.64637 9.25366V10.7537Z" fill="white"/>
</svg>
