<svg width="18" height="21" viewBox="0 0 18 21" fill="none" xmlns="http://www.w3.org/2000/svg">
<path d="M14.2892 11.1377C14.2804 9.4248 15.0179 8.13197 16.5109 7.17986C15.6755 5.92437 14.4136 5.23362 12.7474 5.09827C11.1701 4.96759 9.44612 6.06439 8.81518 6.06439C8.1487 6.06439 6.62023 5.14494 5.42055 5.14494C2.94123 5.18695 0.306396 7.22186 0.306396 11.3617C0.306396 12.5845 0.519671 13.8478 0.946221 15.1515C1.51495 16.8644 3.56773 21.0649 5.70936 20.9949C6.82906 20.9669 7.61995 20.1594 9.07733 20.1594C10.4903 20.1594 11.2234 20.9949 12.472 20.9949C14.6314 20.9622 16.4886 17.1444 17.0307 15.4269C14.1337 13.994 14.2892 11.2263 14.2892 11.1377ZM11.7744 3.47408C12.9874 1.96189 12.8763 0.585059 12.8407 0.090332C11.7699 0.155673 10.5303 0.855758 9.82379 1.7192C9.04623 2.64331 8.58858 3.78678 8.68633 5.07494C9.84601 5.16828 10.9035 4.54287 11.7744 3.47408Z" fill="#191919"/>
</svg>
