<svg width="230" height="35" viewBox="0 0 230 35" fill="none" xmlns="http://www.w3.org/2000/svg">
<path d="M71.2248 6.68457C70.349 6.68457 69.6162 7.40142 69.6162 8.27955C69.6162 9.15769 70.3311 9.87453 71.2248 9.87453C72.1006 9.87453 72.8155 9.15769 72.8155 8.27955C72.8155 7.40142 72.1006 6.68457 71.2248 6.68457Z" fill="white"/>
<path d="M93.4055 14.1039C94.4958 14.1039 95.443 14.3727 96.1758 14.9103C96.8372 15.3942 97.3197 16.0214 97.5878 16.81C97.6593 17.0071 97.8381 17.1505 98.0525 17.1505H100.019C100.179 17.1505 100.322 17.0788 100.412 16.9533C100.501 16.8279 100.537 16.6666 100.483 16.5232C100.054 15.1075 99.2679 13.9784 98.1598 13.1361C96.9265 12.2042 95.3179 11.7383 93.4055 11.7383C91.922 11.7383 90.5994 12.0788 89.4555 12.7419C88.3116 13.4049 87.4001 14.3548 86.7567 15.5555C86.1132 16.7562 85.7915 18.1899 85.7915 19.8028C85.7915 21.4336 86.1132 22.8673 86.7567 24.0859C87.4001 25.3046 88.3116 26.2544 89.4555 26.9175C90.5994 27.5806 91.922 27.9211 93.4055 27.9211C95.2822 27.9211 96.855 27.4372 98.1062 26.4695C99.2143 25.6092 100.019 24.4981 100.465 23.1361C100.519 22.9928 100.483 22.8315 100.394 22.6881C100.305 22.5626 100.162 22.491 100.001 22.491H98.0525C97.8381 22.491 97.6593 22.6343 97.5878 22.8315C97.3019 23.6558 96.8193 24.301 96.158 24.7669C95.4252 25.2867 94.4958 25.5376 93.4055 25.5376C91.9756 25.5376 90.8139 25.0358 89.9381 24.0501C89.0623 23.0644 88.6155 21.6308 88.6155 19.8028C88.6155 17.9928 89.0623 16.577 89.9381 15.5913C90.796 14.5877 91.9756 14.1039 93.4055 14.1039Z" fill="white"/>
<path d="M84.1649 11.9893H81.8414C81.6805 11.9893 81.5375 12.0251 81.3945 12.1147L79.5 13.2079C79.4285 13.2437 79.357 13.2437 79.2855 13.2079C79.214 13.1721 79.1783 13.1004 79.1783 13.0287V12.491C79.1783 12.3118 79.0889 12.1505 78.928 12.0609C78.7672 11.9713 78.5884 11.9713 78.4455 12.0609L76.5509 13.1721C76.4794 13.2258 76.4258 13.2975 76.4258 13.405V27.509C76.4258 27.6523 76.5509 27.7778 76.6939 27.7778H78.928C79.071 27.7778 79.1961 27.6523 79.1961 27.509V14.9104C79.1961 14.8208 79.2676 14.7491 79.357 14.7491H84.1828C84.3258 14.7491 84.4509 14.6237 84.4509 14.4803V12.2402C84.433 12.0968 84.3079 11.9893 84.1649 11.9893Z" fill="white"/>
<path d="M72.3152 11.9893H70.0811C69.9381 11.9893 69.813 12.1147 69.813 12.2581V27.509C69.813 27.6523 69.9381 27.7778 70.0811 27.7778H72.3152C72.4582 27.7778 72.5833 27.6523 72.5833 27.509V12.2402C72.5833 12.0968 72.4582 11.9893 72.3152 11.9893Z" fill="white"/>
<path d="M26.2376 10.4837L18.5164 5.96761C17.7657 5.51958 16.6755 5.51958 15.9248 5.96761L8.22144 10.4837C7.47077 10.9138 6.93457 11.8637 6.93457 12.7418V21.7741C6.93457 22.6522 7.47077 23.602 8.22144 24.0321L15.9427 28.5483C16.318 28.7633 16.7827 28.8708 17.2474 28.8708C17.7121 28.8708 18.1589 28.7633 18.5522 28.5483L26.2734 24.0321C27.0241 23.602 27.5603 22.6522 27.5603 21.7741V12.7418C27.5245 11.8816 26.9883 10.9318 26.2376 10.4837ZM25.487 21.792C25.487 21.9354 25.3261 22.2042 25.2189 22.2759L17.4976 26.792C17.3904 26.8637 17.0866 26.8637 16.9614 26.792L9.24021 22.2759C9.13298 22.2042 8.97212 21.9174 8.97212 21.792V12.7418C8.97212 12.5984 9.13298 12.3296 9.24021 12.2579L16.9436 7.74181C16.9972 7.70596 17.1044 7.68804 17.2117 7.68804C17.3189 7.68804 17.4261 7.70596 17.4798 7.74181L25.201 12.2579C25.3082 12.3296 25.4691 12.6164 25.4691 12.7418V21.792H25.487Z" fill="white"/>
<path d="M17.2298 0C7.72123 0 0 7.74193 0 17.2581C0 26.7742 7.72123 34.5161 17.2298 34.5161C26.7383 34.5161 34.4595 26.7742 34.4595 17.2581C34.4595 7.74193 26.7204 0 17.2298 0ZM17.2298 32.491C8.86511 32.491 2.03755 25.6631 2.03755 17.276C2.03755 8.88889 8.84724 2.06093 17.2298 2.06093C25.6123 2.06093 32.422 8.88889 32.422 17.276C32.4041 25.6631 25.5944 32.491 17.2298 32.491Z" fill="white"/>
<path d="M52.7083 9.96415C53.8522 9.28315 55.1748 8.94265 56.6047 8.94265C58.106 8.94265 59.4107 9.28315 60.501 9.96415C61.5019 10.5914 62.3062 11.4874 62.8603 12.6165C62.9496 12.7778 63.1105 12.8853 63.2892 12.8853H65.5949C65.7557 12.8853 65.9166 12.7957 66.006 12.6702C66.0953 12.5269 66.1132 12.3656 66.0417 12.2043C65.2553 10.4839 64.0935 9.12186 62.5922 8.15412C60.8942 7.06093 58.8924 6.50537 56.6225 6.50537C54.6922 6.50537 52.9049 6.97132 51.3321 7.8853C49.7413 8.79928 48.4902 10.0896 47.5608 11.7204C46.6493 13.3512 46.1846 15.1971 46.1846 17.2401C46.1846 19.2831 46.6493 21.129 47.5608 22.7419C48.4723 24.3548 49.7413 25.6452 51.3321 26.5412C52.9049 27.4552 54.6922 27.9032 56.6225 27.9032C58.8924 27.9032 60.8942 27.3477 62.5922 26.2545C64.0935 25.2867 65.2553 23.9426 66.0417 22.2581C66.1132 22.1147 66.0953 21.9355 66.006 21.7921C65.9166 21.6487 65.7736 21.5771 65.5949 21.5771H63.2892C63.1105 21.5771 62.9496 21.6846 62.8603 21.8459C62.2883 22.9749 61.5019 23.853 60.501 24.4803C59.4286 25.1434 58.1239 25.4839 56.6047 25.4839C55.1569 25.4839 53.8522 25.1434 52.7083 24.4624C51.5644 23.7993 50.6529 22.8136 49.9916 21.5771C49.3303 20.3405 49.0085 18.871 49.0085 17.2222C49.0085 15.5555 49.3481 14.086 49.9916 12.8495C50.6529 11.595 51.5644 10.6272 52.7083 9.96415Z" fill="white"/>
<path d="M216.409 19.6416C215.712 19.3549 214.8 19.0502 213.692 18.7455C212.817 18.5126 212.119 18.2796 211.637 18.0825C211.154 17.8853 210.743 17.6344 210.439 17.3119C210.136 17.0072 209.975 16.595 209.975 16.1291C209.975 15.5197 210.225 15.0359 210.743 14.6595C211.262 14.2832 211.994 14.086 212.888 14.086C213.853 14.086 214.64 14.319 215.212 14.8029C215.73 15.233 216.034 15.7886 216.123 16.4516C216.141 16.6309 216.302 16.7742 216.481 16.7742H218.536C218.643 16.7742 218.733 16.7384 218.804 16.6488C218.876 16.5771 218.911 16.4696 218.893 16.38C218.768 14.9821 218.196 13.871 217.195 13.0466C216.123 12.1685 214.711 11.7205 212.995 11.7205C211.887 11.7205 210.868 11.9176 209.993 12.3119C209.117 12.7061 208.438 13.2438 207.955 13.9068C207.472 14.5699 207.24 15.3226 207.24 16.1291C207.24 17.1506 207.508 17.9749 208.044 18.6022C208.563 19.2294 209.206 19.6954 209.939 20.0179C210.672 20.3226 211.619 20.6452 212.763 20.9319C213.996 21.2545 214.943 21.5771 215.533 21.8997C216.105 22.2222 216.373 22.6882 216.373 23.3154C216.373 23.9427 216.105 24.4624 215.569 24.8746C215.033 25.2868 214.264 25.5018 213.317 25.5018C212.298 25.5018 211.458 25.2688 210.833 24.785C210.279 24.3549 209.921 23.8172 209.814 23.1721C209.778 22.9929 209.635 22.8674 209.456 22.8674H207.312C207.204 22.8674 207.115 22.9032 207.043 22.9929C206.972 23.0645 206.954 23.1721 206.954 23.2617C207.043 24.104 207.347 24.8567 207.848 25.5197C208.402 26.2545 209.17 26.828 210.118 27.2402C211.065 27.6524 212.155 27.8495 213.335 27.8495C214.443 27.8495 215.462 27.6524 216.32 27.2581C217.195 26.8638 217.875 26.3262 218.339 25.6273C218.822 24.9283 219.054 24.1398 219.054 23.2796C219.036 22.3298 218.768 21.5233 218.25 20.9319C217.732 20.3764 217.106 19.9283 216.409 19.6416Z" fill="white"/>
<path d="M203.755 11.9891H201.521C201.378 11.9891 201.253 12.1146 201.253 12.2579V20.5913C201.253 22.1683 200.859 23.4049 200.091 24.2293C199.322 25.0536 198.268 25.4658 196.927 25.4658C195.623 25.4658 194.586 25.0715 193.853 24.2651C193.102 23.4766 192.727 22.3117 192.727 20.8242V12.24C192.727 12.0966 192.602 11.9712 192.459 11.9712H190.243C190.1 11.9712 189.975 12.0966 189.975 12.24V21.1468C189.975 22.5805 190.261 23.835 190.815 24.8386C191.369 25.8422 192.155 26.6128 193.12 27.1146C194.085 27.6163 195.194 27.8672 196.409 27.8672C197.463 27.8672 198.464 27.6343 199.34 27.2042C199.966 26.8995 200.484 26.4873 200.913 26.0034C201.056 25.8422 201.306 25.9138 201.36 26.111L201.717 27.5626C201.735 27.688 201.842 27.7597 201.968 27.7597H203.737C203.88 27.7597 204.005 27.6343 204.005 27.4909V12.24C204.023 12.0966 203.898 11.9891 203.755 11.9891Z" fill="white"/>
<path d="M225.988 14.3011H229.599C229.742 14.3011 229.867 14.1757 229.867 14.0323V12.2402C229.867 12.0968 229.742 11.9714 229.599 11.9714H225.988C225.899 11.9714 225.828 11.8997 225.828 11.8101V7.77785C225.828 7.63448 225.703 7.50903 225.56 7.50903H223.325C223.182 7.50903 223.057 7.63448 223.057 7.77785V11.828C223.057 11.9176 222.986 11.9893 222.896 11.9893H221.306C221.163 11.9893 221.038 12.1148 221.038 12.2581V14.0502C221.038 14.1936 221.163 14.3191 221.306 14.3191H222.896C222.986 14.3191 223.057 14.3908 223.057 14.4804V25.7528C223.057 26.0395 223.2 26.2904 223.45 26.4338L225.595 27.6703C225.72 27.742 225.846 27.7778 225.988 27.7778H229.581C229.724 27.7778 229.849 27.6524 229.849 27.509V25.6631C229.849 25.5198 229.724 25.3943 229.581 25.3943H226.096C225.953 25.3943 225.828 25.2689 225.828 25.1255V14.4445C225.828 14.3728 225.899 14.3011 225.988 14.3011Z" fill="white"/>
<path d="M187.008 11.9893H184.684C184.523 11.9893 184.38 12.0251 184.237 12.1147L182.343 13.2079C182.271 13.2437 182.2 13.2437 182.128 13.2079C182.057 13.1721 182.021 13.1004 182.021 13.0287V12.491C182.021 12.3118 181.932 12.1505 181.771 12.0609C181.61 11.9713 181.431 11.9713 181.288 12.0609L179.394 13.1721C179.304 13.2258 179.269 13.2975 179.269 13.405V27.509C179.269 27.6523 179.394 27.7778 179.537 27.7778H181.771C181.914 27.7778 182.039 27.6523 182.039 27.509V14.9104C182.039 14.8208 182.11 14.7491 182.2 14.7491H187.026C187.169 14.7491 187.294 14.6237 187.294 14.4803V12.2402C187.276 12.0968 187.151 11.9893 187.008 11.9893Z" fill="white"/>
<path d="M178.661 6.63086H165.685C165.542 6.63086 165.417 6.75631 165.417 6.89968V8.65595C165.417 8.79932 165.542 8.92477 165.685 8.92477H170.546C170.689 8.92477 170.814 9.05021 170.814 9.19358V27.509C170.814 27.6524 170.939 27.7778 171.082 27.7778H173.316C173.459 27.7778 173.585 27.6524 173.585 27.509V9.17566C173.585 9.03229 173.71 8.90684 173.853 8.90684H178.678C178.821 8.90684 178.947 8.7814 178.947 8.63803V6.88176C178.929 6.75631 178.804 6.63086 178.661 6.63086Z" fill="white"/>
<path d="M144.612 12.7061C143.414 12.043 142.074 11.7205 140.59 11.7205C139.125 11.7205 137.766 12.043 136.569 12.7061C135.371 13.3692 134.424 14.319 133.727 15.5377C133.03 16.7563 132.69 18.19 132.69 19.785C132.69 21.3979 133.03 22.8316 133.709 24.0502C134.388 25.2688 135.318 26.2366 136.515 26.8997C137.695 27.5628 139.035 27.9033 140.483 27.9033C141.949 27.9033 143.325 27.5628 144.522 26.8997C145.738 26.2366 146.703 25.2868 147.418 24.0502C148.133 22.8316 148.49 21.3979 148.49 19.785C148.49 18.1721 148.133 16.7384 147.454 15.5377C146.775 14.319 145.809 13.3692 144.612 12.7061ZM144.951 22.9033C144.469 23.7455 143.825 24.3907 143.039 24.8208C142.253 25.2509 141.395 25.4481 140.501 25.4481C139.607 25.4481 138.767 25.233 138.017 24.8208C137.266 24.4086 136.658 23.7635 136.211 22.9212C135.765 22.0789 135.532 21.0215 135.532 19.785C135.532 18.5663 135.765 17.509 136.229 16.6667C136.694 15.8244 137.302 15.1792 138.07 14.7671C138.839 14.3549 139.679 14.1398 140.608 14.1398C141.502 14.1398 142.36 14.3549 143.128 14.7671C143.897 15.1792 144.522 15.8244 145.005 16.6667C145.488 17.509 145.72 18.5663 145.72 19.785C145.684 21.0036 145.434 22.061 144.951 22.9033Z" fill="white"/>
<path d="M121.467 12.706C120.341 12.0609 119 11.7383 117.534 11.7383C116.015 11.7383 114.675 12.0788 113.495 12.7239C112.316 13.3691 111.404 14.3368 110.761 15.5376C110.117 16.7562 109.795 18.1899 109.795 19.7849C109.795 21.3978 110.135 22.8315 110.796 24.0501C111.458 25.2687 112.387 26.2365 113.549 26.8996C114.711 27.5626 116.051 27.9031 117.534 27.9031C119.393 27.9031 120.966 27.4193 122.217 26.4874C123.379 25.6272 124.183 24.4981 124.63 23.154C124.666 23.0465 124.648 22.939 124.577 22.8315C124.505 22.7419 124.398 22.6881 124.291 22.6881H122.056C121.913 22.6881 121.788 22.7777 121.717 22.9211C121.413 23.6917 120.93 24.3189 120.251 24.7849C119.536 25.2867 118.607 25.5376 117.534 25.5376C116.212 25.5376 115.068 25.1075 114.156 24.2831C113.299 23.4945 112.78 22.4193 112.655 21.0573C112.655 21.0214 112.673 20.9677 112.691 20.9318C112.727 20.896 112.762 20.8781 112.816 20.8781H124.63C124.809 20.8781 124.97 20.7347 124.988 20.5555C125.023 20.0895 125.041 19.6594 125.041 19.2293C125.041 17.8135 124.737 16.5053 124.112 15.3942C123.486 14.2472 122.61 13.3512 121.467 12.706ZM122.146 18.5304C122.11 18.5662 122.074 18.5842 122.021 18.5842H112.834C112.78 18.5842 112.744 18.5662 112.709 18.5304C112.673 18.4946 112.673 18.4587 112.673 18.4049C112.834 17.1146 113.352 16.0573 114.174 15.3046C115.068 14.4981 116.158 14.086 117.427 14.086C118.303 14.086 119.125 14.2652 119.84 14.6236C120.555 14.982 121.145 15.5017 121.556 16.2006C121.931 16.8279 122.146 17.5627 122.182 18.4049C122.199 18.4587 122.182 18.5125 122.146 18.5304Z" fill="white"/>
<path d="M157.892 11.9712H155.086C154.996 11.9712 154.925 11.8995 154.925 11.8099V9.17552C154.925 9.03215 155.05 8.9067 155.193 8.9067H157.731C157.874 8.9067 157.999 8.78125 157.999 8.63788V6.88161C157.999 6.73824 157.874 6.61279 157.731 6.61279H155.014C154.871 6.61279 154.746 6.64863 154.621 6.72032L152.298 8.0644C152.226 8.11817 152.173 8.18985 152.173 8.20777V11.7203C152.173 11.8995 152.101 11.9533 152.012 11.9533H150.421C150.278 11.9533 150.153 12.0787 150.153 12.2221V13.9963C150.153 14.1397 150.278 14.2651 150.421 14.2651H152.012C152.101 14.2651 152.173 14.3368 152.173 14.4264V27.4909C152.173 27.6343 152.298 27.7597 152.441 27.7597H154.693C154.836 27.7597 154.961 27.6343 154.961 27.4909V14.4264C154.961 14.3368 155.032 14.2651 155.122 14.2651H157.928C158.071 14.2651 158.196 14.1397 158.196 13.9963V12.2221C158.16 12.0967 158.035 11.9712 157.892 11.9712Z" fill="white"/>
<path d="M106.328 6.64868H104.094C103.951 6.64868 103.826 6.77413 103.826 6.9175V27.3834C103.826 27.5268 103.951 27.6523 104.094 27.6523H106.328C106.471 27.6523 106.596 27.5268 106.596 27.3834V6.9175C106.596 6.77413 106.471 6.64868 106.328 6.64868Z" fill="white"/>
</svg>
