<svg width="22" height="23" viewBox="0 0 22 23" fill="none" xmlns="http://www.w3.org/2000/svg">
<path d="M5.22731 13.7677L4.49207 16.5386L1.80478 16.596C1.00168 15.0922 0.546143 13.3717 0.546143 11.5434C0.546143 9.7754 0.972056 8.10817 1.72702 6.64014H1.72759L4.12004 7.08293L5.16807 9.48366C4.94872 10.1292 4.82916 10.8223 4.82916 11.5434C4.82925 12.326 4.96968 13.0759 5.22731 13.7677Z" fill="#191919"/>
<path d="M21.4838 9.55127C21.6051 10.1962 21.6684 10.8623 21.6684 11.543C21.6684 12.3063 21.5889 13.0509 21.4374 13.7691C20.9233 16.2131 19.5799 18.3472 17.719 19.8574L17.7184 19.8569L14.705 19.7016L14.2785 17.0139C15.5133 16.2828 16.4784 15.1387 16.9867 13.7691H11.3394V9.55127H17.0691H21.4838Z" fill="#191919"/>
<path d="M17.7184 19.8571L17.719 19.8576C15.9091 21.3263 13.61 22.205 11.1073 22.205C7.08529 22.205 3.5885 19.9356 1.80469 16.5959L5.22722 13.7676C6.1191 16.1706 8.4153 17.8811 11.1073 17.8811C12.2643 17.8811 13.3483 17.5654 14.2785 17.0141L17.7184 19.8571Z" fill="#191919"/>
<path d="M17.8483 3.33588L14.4269 6.16358C13.4643 5.55611 12.3263 5.20519 11.1071 5.20519C8.35425 5.20519 6.01511 6.99424 5.1679 9.48338L1.72738 6.63986H1.72681C3.4845 3.21873 7.0254 0.881348 11.1071 0.881348C13.6697 0.881348 16.0193 1.80284 17.8483 3.33588Z" fill="#191919"/>
</svg>
