<svg width="401" height="335" viewBox="0 0 401 335" fill="none" xmlns="http://www.w3.org/2000/svg">
<path d="M355.055 256.217L355.055 155.597M225.989 23.3599C223.885 24.5827 222.306 27.5523 222.306 29.8233L222.306 72.6214C222.306 75.067 224.06 77.862 225.989 79.0848L262.815 100.571C264.919 101.794 268.251 101.794 270.356 100.571L307.181 79.2595C309.286 78.0367 310.864 75.067 310.864 72.7961L310.864 29.998C310.864 27.5523 309.11 24.7574 307.181 23.5346L270.356 2.04817C268.251 0.825364 264.919 0.825365 262.815 2.04817L225.989 23.3599ZM310.338 76.4645L222.833 26.1549L310.338 76.4645ZM222.833 76.4645L310.338 26.1549L222.833 76.4645ZM266.498 101.619L266.498 1.00004L266.498 101.619ZM314.547 23.3599C312.442 24.5827 310.864 27.5523 310.864 29.8233L310.864 72.6214C310.864 75.067 312.618 77.862 314.547 79.0848L351.373 100.571C353.477 101.794 356.809 101.794 358.913 100.571L395.739 79.2595C397.843 78.0367 399.422 75.067 399.422 72.7961L399.422 29.9979C399.422 27.5523 397.668 24.7574 395.739 23.5346L358.913 2.04816C356.809 0.825356 353.477 0.825357 351.373 2.04816L314.547 23.3599ZM398.896 76.4645L311.39 26.1549L398.896 76.4645ZM311.39 76.4645L398.896 26.1549L311.39 76.4645ZM355.055 101.619L355.055 1.00003L355.055 101.619ZM48.8737 23.3599C46.7694 24.5827 45.1912 27.5524 45.1912 29.8233L45.1912 72.6214C45.1912 75.067 46.9448 77.862 48.8737 79.0848L85.6997 100.571C87.804 101.794 91.1359 101.794 93.2402 100.571L130.066 79.2595C132.171 78.0367 133.749 75.067 133.749 72.7961L133.749 29.998C133.749 27.5524 131.995 24.7574 130.066 23.5346L93.2402 2.04818C91.1359 0.82538 87.804 0.82538 85.6997 2.04818L48.8737 23.3599ZM133.223 76.4645L45.7172 26.1549L133.223 76.4645ZM45.7172 76.4645L133.223 26.1549L45.7172 76.4645ZM89.3823 101.619L89.3823 1.00006L89.3823 101.619ZM4.6826 100.571C2.57826 101.794 0.999999 104.764 1 107.035L1 149.833C1 152.278 2.75363 155.073 4.68261 156.296L41.5086 177.783C43.6129 179.005 46.9448 179.005 49.0491 177.783L85.8751 156.296C87.9794 155.073 89.5576 152.104 89.5576 149.833L89.5576 107.209C89.5576 104.764 87.804 101.969 85.8751 100.746L49.0491 79.2595C46.9448 78.0367 43.6129 78.0367 41.5086 79.2595L4.6826 100.571ZM88.8562 153.676L1.35074 103.366L88.8562 153.676ZM1.52609 153.676L89.0316 103.366L1.52609 153.676ZM45.1912 178.831L45.1912 78.2114L45.1912 178.831ZM181.798 255.343C179.694 256.566 178.115 259.536 178.115 261.807L178.115 304.779C178.115 307.225 179.869 310.02 181.798 311.243L218.624 332.729C220.728 333.952 224.06 333.952 226.164 332.729L262.99 311.243C265.095 310.02 266.673 307.05 266.673 304.779L266.673 261.981C266.673 259.536 264.919 256.741 262.99 255.518L226.164 234.031C224.06 232.809 220.728 232.809 218.624 234.031L181.798 255.343ZM265.972 308.448L178.466 258.138L265.972 308.448ZM178.641 308.448L265.972 258.138L178.641 308.448ZM222.306 333.603L222.306 232.983L222.306 333.603ZM137.431 177.957C135.327 179.18 133.749 182.15 133.749 184.421L133.749 227.393C133.749 229.839 135.502 232.634 137.431 233.857L174.257 255.343C176.362 256.566 179.694 256.566 181.798 255.343L218.624 233.857C220.728 232.634 222.306 229.664 222.306 227.393L222.306 184.595C222.306 182.15 220.553 179.355 218.624 178.132L181.798 156.645C179.694 155.423 176.362 155.423 174.257 156.645L137.431 177.957ZM221.78 231.062L134.275 180.752L221.78 231.062ZM134.275 231.062L221.78 180.752L134.275 231.062ZM177.94 256.217L177.94 155.597L177.94 256.217ZM225.989 177.957C223.885 179.18 222.306 182.15 222.306 184.421L222.306 227.393C222.306 229.839 224.06 232.634 225.989 233.857L262.815 255.343C264.919 256.566 268.251 256.566 270.356 255.343L307.182 233.857C309.286 232.634 310.864 229.664 310.864 227.393L310.864 184.595C310.864 182.15 309.11 179.355 307.182 178.132L270.356 156.645C268.251 155.423 264.919 155.423 262.815 156.645L225.989 177.957ZM310.338 231.062L222.833 180.752L310.338 231.062ZM222.833 231.062L310.338 180.752L222.833 231.062ZM266.498 256.217L266.498 155.597L266.498 256.217ZM314.547 177.957C312.442 179.18 310.864 182.15 310.864 184.421L310.864 227.393C310.864 229.839 312.618 232.634 314.547 233.857L351.373 255.343C353.477 256.566 356.809 256.566 358.913 255.343L395.739 233.857C397.843 232.634 399.422 229.664 399.422 227.393L399.422 184.595C399.422 182.15 397.668 179.355 395.739 178.132L358.913 156.645C356.809 155.423 353.477 155.423 351.373 156.645L314.547 177.957ZM398.896 231.062L311.39 180.752L398.896 231.062ZM311.39 231.062L398.896 180.752L311.39 231.062Z" stroke="white" stroke-width="1.5" stroke-miterlimit="10"/>
<path d="M270.356 100.571C268.251 101.794 266.673 104.764 266.673 107.035L266.673 149.833C266.673 152.278 268.427 155.073 270.356 156.296L307.181 177.957C309.286 179.18 312.618 179.18 314.722 177.957L351.548 156.471C353.652 155.248 355.231 152.278 355.231 150.007L355.231 107.209C355.231 104.764 353.477 101.969 351.548 100.746L314.722 79.2594C312.618 78.0366 309.286 78.0366 307.181 79.2594L270.356 100.571Z" fill="white"/>
</svg>
