<svg width="29" height="33" viewBox="0 0 29 33" fill="none" xmlns="http://www.w3.org/2000/svg">
<path d="M2.106 7.93476L2.10676 7.93431L13.7496 1.14122C13.7497 1.14114 13.7498 1.14106 13.75 1.14097C13.9899 1.00172 14.328 0.918945 14.6904 0.918945C15.0526 0.918945 15.3904 1.00158 15.6303 1.14062C15.6306 1.14082 15.631 1.14102 15.6313 1.14122L27.2648 7.98409C27.4879 8.12744 27.7245 8.37891 27.9058 8.68765C28.0891 8.99985 28.1904 9.32703 28.1904 9.60126V23.1331C28.1904 23.3869 28.0984 23.7176 27.9211 24.0356C27.7439 24.3533 27.5096 24.6079 27.2749 24.7444L15.6321 31.4822L15.6313 31.4827C15.3914 31.6221 15.0531 31.7049 14.6904 31.7049C14.3278 31.7049 13.9897 31.6221 13.7498 31.4828C13.7497 31.4827 13.7496 31.4827 13.7496 31.4827L2.11538 24.6946C1.89246 24.5512 1.65616 24.2999 1.47506 23.9915C1.29175 23.6793 1.19043 23.3521 1.19043 23.0779V9.54603C1.19043 9.29223 1.28244 8.96149 1.45978 8.6435C1.63698 8.32578 1.87122 8.07118 2.106 7.93476Z" stroke="#ED6C50"/>
<path d="M8.21568 15.884C8.21568 14.508 8.43968 13.436 8.88768 12.668C9.33568 11.892 10.1197 11.504 11.2397 11.504C12.3517 11.504 13.1317 11.892 13.5797 12.668C14.0277 13.436 14.2517 14.508 14.2517 15.884C14.2517 17.284 14.0277 18.372 13.5797 19.148C13.1317 19.924 12.3517 20.312 11.2397 20.312C10.1197 20.312 9.33568 19.924 8.88768 19.148C8.43968 18.372 8.21568 17.284 8.21568 15.884ZM13.1717 15.884C13.1717 15.188 13.1237 14.6 13.0277 14.12C12.9397 13.632 12.7517 13.24 12.4637 12.944C12.1837 12.648 11.7757 12.5 11.2397 12.5C10.6957 12.5 10.2797 12.648 9.99168 12.944C9.71168 13.24 9.52368 13.632 9.42768 14.12C9.33968 14.6 9.29568 15.188 9.29568 15.884C9.29568 16.604 9.33968 17.208 9.42768 17.696C9.52368 18.184 9.71168 18.576 9.99168 18.872C10.2797 19.168 10.6957 19.316 11.2397 19.316C11.7757 19.316 12.1837 19.168 12.4637 18.872C12.7517 18.576 12.9397 18.184 13.0277 17.696C13.1237 17.208 13.1717 16.604 13.1717 15.884ZM15.6188 19.436C16.6348 18.62 17.4308 17.952 18.0068 17.432C18.5828 16.904 19.0668 16.356 19.4588 15.788C19.8588 15.212 20.0588 14.648 20.0588 14.096C20.0588 13.576 19.9308 13.168 19.6748 12.872C19.4268 12.568 19.0228 12.416 18.4628 12.416C17.9188 12.416 17.4948 12.588 17.1908 12.932C16.8948 13.268 16.7348 13.72 16.7108 14.288H15.6548C15.6868 13.392 15.9588 12.7 16.4708 12.212C16.9828 11.724 17.6428 11.48 18.4508 11.48C19.2748 11.48 19.9268 11.708 20.4068 12.164C20.8948 12.62 21.1388 13.248 21.1388 14.048C21.1388 14.712 20.9388 15.36 20.5388 15.992C20.1468 16.616 19.6988 17.168 19.1948 17.648C18.6908 18.12 18.0468 18.672 17.2628 19.304H21.3908V20.216H15.6188V19.436Z" fill="white"/>
</svg>
