<svg width="28" height="32" viewBox="0 0 28 32" fill="none" xmlns="http://www.w3.org/2000/svg">
<path d="M1.41557 7.51581L1.41633 7.51537L13.0591 0.722279C13.0593 0.722196 13.0594 0.722112 13.0596 0.722028C13.2994 0.582773 13.6375 0.5 14 0.5C14.3622 0.5 14.7 0.582634 14.9398 0.721676C14.9402 0.721877 14.9405 0.722078 14.9409 0.722279L26.5744 7.56514C26.7975 7.70849 27.0341 7.95997 27.2154 8.26871C27.3987 8.58091 27.5 8.90808 27.5 9.18231V22.7141C27.5 22.9679 27.408 23.2987 27.2306 23.6167C27.0535 23.9344 26.8192 24.189 26.5844 24.3254L14.9416 31.0633L14.9409 31.0637C14.701 31.2031 14.3627 31.286 14 31.286C13.6374 31.286 13.2992 31.2032 13.0593 31.0638C13.0593 31.0638 13.0592 31.0638 13.0591 31.0637L1.42495 24.2757C1.20203 24.1322 0.965734 23.881 0.784633 23.5725C0.601319 23.2603 0.5 22.9331 0.5 22.6589V9.12708C0.5 8.87328 0.592009 8.54255 0.769353 8.22456C0.946546 7.90684 1.18079 7.65224 1.41557 7.51581Z" stroke="#ED6C50"/>
<path d="M7.20298 15.4651C7.20298 14.0891 7.42698 13.0171 7.87498 12.2491C8.32298 11.4731 9.10698 11.0851 10.227 11.0851C11.339 11.0851 12.119 11.4731 12.567 12.2491C13.015 13.0171 13.239 14.0891 13.239 15.4651C13.239 16.8651 13.015 17.9531 12.567 18.7291C12.119 19.5051 11.339 19.8931 10.227 19.8931C9.10698 19.8931 8.32298 19.5051 7.87498 18.7291C7.42698 17.9531 7.20298 16.8651 7.20298 15.4651ZM12.159 15.4651C12.159 14.7691 12.111 14.1811 12.015 13.7011C11.927 13.2131 11.739 12.8211 11.451 12.5251C11.171 12.2291 10.763 12.0811 10.227 12.0811C9.68298 12.0811 9.26698 12.2291 8.97898 12.5251C8.69898 12.8211 8.51098 13.2131 8.41498 13.7011C8.32698 14.1811 8.28298 14.7691 8.28298 15.4651C8.28298 16.1851 8.32698 16.7891 8.41498 17.2771C8.51098 17.7651 8.69898 18.1571 8.97898 18.4531C9.26698 18.7491 9.68298 18.8971 10.227 18.8971C10.763 18.8971 11.171 18.7491 11.451 18.4531C11.739 18.1571 11.927 17.7651 12.015 17.2771C12.111 16.7891 12.159 16.1851 12.159 15.4651ZM14.4741 17.9611V17.1331L18.6861 11.3011H19.9941V17.0131H21.1941V17.9611H19.9941V19.8931H18.9141V17.9611H14.4741ZM18.9621 12.4411L15.7341 17.0131H18.9621V12.4411Z" fill="white"/>
</svg>
