<svg width="29" height="33" viewBox="0 0 29 33" fill="none" xmlns="http://www.w3.org/2000/svg">
<path d="M2.106 8.23823L2.10676 8.23778L13.7496 1.44469C13.7497 1.44461 13.7498 1.44452 13.75 1.44444C13.9899 1.30519 14.328 1.22241 14.6904 1.22241C15.0526 1.22241 15.3904 1.30505 15.6303 1.44409C15.6306 1.44429 15.631 1.44449 15.6313 1.44469L27.2648 8.28755C27.4879 8.43091 27.7245 8.68238 27.9058 8.99112C28.0891 9.30332 28.1904 9.6305 28.1904 9.90473V23.4366C28.1904 23.6904 28.0984 24.0211 27.9211 24.3391C27.7439 24.6568 27.5096 24.9114 27.2749 25.0478L15.6321 31.7857L15.6313 31.7861C15.3914 31.9255 15.0531 32.0084 14.6904 32.0084C14.3278 32.0084 13.9897 31.9256 13.7498 31.7862C13.7497 31.7862 13.7496 31.7862 13.7496 31.7861L2.11538 24.9981C1.89246 24.8546 1.65616 24.6034 1.47506 24.2949C1.29175 23.9827 1.19043 23.6556 1.19043 23.3813V9.84949C1.19043 9.5957 1.28244 9.26496 1.45978 8.94697C1.63698 8.62925 1.87122 8.37465 2.106 8.23823Z" stroke="#ED6C50"/>
<path d="M9.74498 16.1875C9.74498 14.8115 9.96898 13.7395 10.417 12.9715C10.865 12.1955 11.649 11.8075 12.769 11.8075C13.881 11.8075 14.661 12.1955 15.109 12.9715C15.557 13.7395 15.781 14.8115 15.781 16.1875C15.781 17.5875 15.557 18.6755 15.109 19.4515C14.661 20.2275 13.881 20.6155 12.769 20.6155C11.649 20.6155 10.865 20.2275 10.417 19.4515C9.96898 18.6755 9.74498 17.5875 9.74498 16.1875ZM14.701 16.1875C14.701 15.4915 14.653 14.9035 14.557 14.4235C14.469 13.9355 14.281 13.5435 13.993 13.2475C13.713 12.9515 13.305 12.8035 12.769 12.8035C12.225 12.8035 11.809 12.9515 11.521 13.2475C11.241 13.5435 11.053 13.9355 10.957 14.4235C10.869 14.9035 10.825 15.4915 10.825 16.1875C10.825 16.9075 10.869 17.5115 10.957 17.9995C11.053 18.4875 11.241 18.8795 11.521 19.1755C11.809 19.4715 12.225 19.6195 12.769 19.6195C13.305 19.6195 13.713 19.4715 13.993 19.1755C14.281 18.8795 14.469 18.4875 14.557 17.9995C14.653 17.5115 14.701 16.9075 14.701 16.1875ZM16.9921 12.9355V11.9395H19.2481V20.6155H18.1441V12.9355H16.9921Z" fill="white"/>
</svg>
