<svg width="401" height="335" viewBox="0 0 401 335" fill="none" xmlns="http://www.w3.org/2000/svg">
<path d="M354.932 256.654L354.932 156.035M225.866 23.7976C223.762 25.0204 222.184 27.9901 222.184 30.261L222.184 73.0591C222.184 75.5047 223.937 78.2997 225.866 79.5225L262.692 101.009C264.796 102.232 268.128 102.232 270.233 101.009L307.059 79.6972C309.163 78.4744 310.741 75.5047 310.741 73.2338L310.741 30.4357C310.741 27.9901 308.988 25.1951 307.059 23.9723L270.233 2.48591C268.128 1.26311 264.796 1.26311 262.692 2.48591L225.866 23.7976ZM310.215 76.9022L222.71 26.5926L310.215 76.9022ZM222.71 76.9022L310.215 26.5926L222.71 76.9022ZM266.375 102.057L266.375 1.43778L266.375 102.057ZM314.424 23.7976C312.319 25.0204 310.741 27.9901 310.741 30.261L310.741 73.0591C310.741 75.5047 312.495 78.2997 314.424 79.5225L351.25 101.009C353.354 102.232 356.686 102.232 358.79 101.009L395.616 79.6972C397.721 78.4744 399.299 75.5047 399.299 73.2338L399.299 30.4357C399.299 27.9901 397.545 25.1951 395.616 23.9723L358.79 2.4859C356.686 1.2631 353.354 1.2631 351.25 2.4859L314.424 23.7976ZM398.773 76.9022L311.267 26.5926L398.773 76.9022ZM311.267 76.9022L398.773 26.5926L311.267 76.9022ZM354.932 102.057L354.932 1.43778L354.932 102.057ZM48.7508 23.7976C46.6465 25.0204 45.0682 27.9901 45.0682 30.261L45.0682 73.0591C45.0682 75.5048 46.8218 78.2997 48.7508 79.5225L85.5768 101.009C87.6811 102.232 91.013 102.232 93.1173 101.009L129.943 79.6972C132.048 78.4744 133.626 75.5048 133.626 73.2338L133.626 30.4357C133.626 27.9901 131.872 25.1951 129.943 23.9723L93.1173 2.48593C91.013 1.26312 87.6811 1.26312 85.5768 2.48593L48.7508 23.7976ZM133.1 76.9022L45.5943 26.5926L133.1 76.9022ZM45.5943 76.9022L133.1 26.5926L45.5943 76.9022ZM89.2594 102.057L89.2594 1.4378L89.2594 102.057ZM4.55968 101.009C2.45534 102.232 0.877075 105.201 0.877075 107.472L0.877079 150.27C0.877079 152.716 2.63071 155.511 4.55968 156.734L41.3856 178.22C43.49 179.443 46.8219 179.443 48.9262 178.22L85.7521 156.734C87.8565 155.511 89.4347 152.541 89.4347 150.27L89.4347 107.647C89.4347 105.201 87.6811 102.406 85.7521 101.184L48.9262 79.6972C46.8218 78.4744 43.49 78.4744 41.3856 79.6972L4.55968 101.009ZM88.7333 154.114L1.22782 103.804L88.7333 154.114ZM1.40317 154.114L88.9087 103.804L1.40317 154.114ZM45.0682 179.268L45.0682 78.6491L45.0682 179.268ZM181.675 255.781C179.571 257.004 177.992 259.973 177.992 262.244L177.992 305.217C177.992 307.663 179.746 310.458 181.675 311.68L218.501 333.167C220.605 334.39 223.937 334.39 226.042 333.167L262.867 311.68C264.972 310.458 266.55 307.488 266.55 305.217L266.55 262.419C266.55 259.973 264.796 257.178 262.867 255.956L226.041 234.469C223.937 233.246 220.605 233.246 218.501 234.469L181.675 255.781ZM265.849 308.886L178.343 258.576L265.849 308.886ZM178.518 308.886L265.849 258.576L178.518 308.886ZM222.184 334.04L222.184 233.421L222.184 334.04ZM137.308 178.395C135.204 179.618 133.626 182.587 133.626 184.858L133.626 227.831C133.626 230.277 135.379 233.072 137.308 234.295L174.134 255.781C176.239 257.004 179.571 257.004 181.675 255.781L218.501 234.295C220.605 233.072 222.184 230.102 222.184 227.831L222.184 185.033C222.184 182.587 220.43 179.792 218.501 178.57L181.675 157.083C179.571 155.86 176.239 155.86 174.134 157.083L137.308 178.395ZM221.657 231.5L134.152 181.19L221.657 231.5ZM134.152 231.5L221.657 181.19L134.152 231.5ZM177.817 256.654L177.817 156.035L177.817 256.654ZM225.866 178.395C223.762 179.618 222.184 182.587 222.184 184.858L222.184 227.831C222.184 230.277 223.937 233.072 225.866 234.295L262.692 255.781C264.796 257.004 268.128 257.004 270.233 255.781L307.059 234.294C309.163 233.072 310.741 230.102 310.741 227.831L310.741 185.033C310.741 182.587 308.988 179.792 307.059 178.57L270.233 157.083C268.128 155.86 264.796 155.86 262.692 157.083L225.866 178.395ZM310.215 231.5L222.71 181.19L310.215 231.5ZM222.71 231.5L310.215 181.19L222.71 231.5ZM266.375 256.654L266.375 156.035L266.375 256.654ZM314.424 178.395C312.319 179.618 310.741 182.587 310.741 184.858L310.741 227.831C310.741 230.277 312.495 233.072 314.424 234.294L351.25 255.781C353.354 257.004 356.686 257.004 358.79 255.781L395.616 234.294C397.721 233.072 399.299 230.102 399.299 227.831L399.299 185.033C399.299 182.587 397.545 179.792 395.616 178.57L358.79 157.083C356.686 155.86 353.354 155.86 351.25 157.083L314.424 178.395ZM398.773 231.5L311.267 181.19L398.773 231.5ZM311.267 231.5L398.773 181.19L311.267 231.5Z" stroke="#191919" stroke-width="1.5" stroke-miterlimit="10"/>
<path d="M269.683 101.229C267.578 102.452 266 105.421 266 107.692L266 150.49C266 152.936 267.754 155.731 269.683 156.954L306.509 178.615C308.613 179.838 311.945 179.838 314.049 178.615L350.875 157.128C352.979 155.906 354.558 152.936 354.558 150.665L354.558 107.867C354.558 105.421 352.804 102.626 350.875 101.404L314.049 79.9171C311.945 78.6943 308.613 78.6943 306.509 79.9171L269.683 101.229Z" fill="#191919"/>
</svg>
