<svg width="29" height="32" viewBox="0 0 29 32" fill="none" xmlns="http://www.w3.org/2000/svg">
<path d="M2.106 7.59614L2.10676 7.59569L13.7496 0.802602C13.7497 0.802518 13.7498 0.802434 13.75 0.802351C13.9899 0.663096 14.328 0.580322 14.6904 0.580322C15.0526 0.580322 15.3904 0.662956 15.6303 0.801999C15.6306 0.8022 15.631 0.802401 15.6313 0.802602L27.2648 7.64546C27.4879 7.78882 27.7245 8.04029 27.9058 8.34903C28.0891 8.66123 28.1904 8.98841 28.1904 9.26264V22.7945C28.1904 23.0483 28.0984 23.379 27.9211 23.697C27.7439 24.0147 27.5096 24.2693 27.2749 24.4057L15.6321 31.1436L15.6313 31.144C15.3914 31.2834 15.0531 31.3663 14.6904 31.3663C14.3278 31.3663 13.9897 31.2835 13.7498 31.1442C13.7497 31.1441 13.7496 31.1441 13.7496 31.144L2.11538 24.356C1.89246 24.2126 1.65616 23.9613 1.47506 23.6528C1.29175 23.3406 1.19043 23.0135 1.19043 22.7392V9.2074C1.19043 8.95361 1.28244 8.62287 1.45978 8.30488C1.63698 7.98716 1.87122 7.73256 2.106 7.59614Z" stroke="#ED6C50"/>
<path d="M8.13365 15.5454C8.13365 14.1694 8.35765 13.0974 8.80565 12.3294C9.25365 11.5534 10.0376 11.1654 11.1576 11.1654C12.2696 11.1654 13.0496 11.5534 13.4976 12.3294C13.9456 13.0974 14.1696 14.1694 14.1696 15.5454C14.1696 16.9454 13.9456 18.0334 13.4976 18.8094C13.0496 19.5854 12.2696 19.9734 11.1576 19.9734C10.0376 19.9734 9.25365 19.5854 8.80565 18.8094C8.35765 18.0334 8.13365 16.9454 8.13365 15.5454ZM13.0896 15.5454C13.0896 14.8494 13.0416 14.2614 12.9456 13.7814C12.8576 13.2934 12.6696 12.9014 12.3816 12.6054C12.1016 12.3094 11.6936 12.1614 11.1576 12.1614C10.6136 12.1614 10.1976 12.3094 9.90965 12.6054C9.62965 12.9014 9.44165 13.2934 9.34565 13.7814C9.25765 14.2614 9.21365 14.8494 9.21365 15.5454C9.21365 16.2654 9.25765 16.8694 9.34565 17.3574C9.44165 17.8454 9.62965 18.2374 9.90965 18.5334C10.1976 18.8294 10.6136 18.9774 11.1576 18.9774C11.6936 18.9774 12.1016 18.8294 12.3816 18.5334C12.6696 18.2374 12.8576 17.8454 12.9456 17.3574C13.0416 16.8694 13.0896 16.2654 13.0896 15.5454ZM15.6448 13.4814C15.7008 12.7454 15.9848 12.1694 16.4968 11.7534C17.0088 11.3374 17.6728 11.1294 18.4888 11.1294C19.0328 11.1294 19.5008 11.2294 19.8928 11.4294C20.2928 11.6214 20.5928 11.8854 20.7928 12.2214C21.0008 12.5574 21.1048 12.9374 21.1048 13.3614C21.1048 13.8574 20.9608 14.2854 20.6728 14.6454C20.3928 15.0054 20.0248 15.2374 19.5688 15.3414V15.4014C20.0888 15.5294 20.5008 15.7814 20.8048 16.1574C21.1088 16.5334 21.2608 17.0254 21.2608 17.6334C21.2608 18.0894 21.1568 18.5014 20.9488 18.8694C20.7408 19.2294 20.4288 19.5134 20.0128 19.7214C19.5968 19.9294 19.0968 20.0334 18.5128 20.0334C17.6648 20.0334 16.9688 19.8134 16.4248 19.3734C15.8808 18.9254 15.5768 18.2934 15.5128 17.4774H16.5688C16.6248 17.9574 16.8208 18.3494 17.1568 18.6534C17.4928 18.9574 17.9408 19.1094 18.5008 19.1094C19.0608 19.1094 19.4848 18.9654 19.7728 18.6774C20.0688 18.3814 20.2168 18.0014 20.2168 17.5374C20.2168 16.9374 20.0168 16.5054 19.6168 16.2414C19.2168 15.9774 18.6128 15.8454 17.8048 15.8454H17.5288V14.9334H17.8168C18.5528 14.9254 19.1088 14.8054 19.4848 14.5734C19.8608 14.3334 20.0488 13.9654 20.0488 13.4694C20.0488 13.0454 19.9088 12.7054 19.6288 12.4494C19.3568 12.1934 18.9648 12.0654 18.4528 12.0654C17.9568 12.0654 17.5568 12.1934 17.2528 12.4494C16.9488 12.7054 16.7688 13.0494 16.7128 13.4814H15.6448Z" fill="white"/>
</svg>
