<svg width="29" height="33" viewBox="0 0 29 33" fill="none" xmlns="http://www.w3.org/2000/svg">
<path d="M2.106 8.02411L2.10676 8.02367L13.7496 1.23058C13.7497 1.2305 13.7498 1.23041 13.75 1.23033C13.9899 1.09107 14.328 1.0083 14.6904 1.0083C15.0526 1.0083 15.3904 1.09093 15.6303 1.22998C15.6306 1.23018 15.631 1.23038 15.6313 1.23058L27.2648 8.07344C27.4879 8.21679 27.7245 8.46827 27.9058 8.77701C28.0891 9.08921 28.1904 9.41638 28.1904 9.69061V23.2225C28.1904 23.4762 28.0984 23.807 27.9211 24.125C27.7439 24.4427 27.5096 24.6973 27.2749 24.8337L15.6321 31.5716L15.6313 31.572C15.3914 31.7114 15.0531 31.7943 14.6904 31.7943C14.3278 31.7943 13.9897 31.7115 13.7498 31.5721C13.7497 31.5721 13.7496 31.5721 13.7496 31.572L2.11538 24.784C1.89246 24.6405 1.65616 24.3893 1.47506 24.0808C1.29175 23.7686 1.19043 23.4414 1.19043 23.1672V9.63538C1.19043 9.38158 1.28244 9.05085 1.45978 8.73286C1.63698 8.41514 1.87122 8.16054 2.106 8.02411Z" stroke="#ED6C50"/>
<path d="M7.85826 15.9734C7.85826 14.5974 8.08226 13.5254 8.53026 12.7574C8.97826 11.9814 9.76226 11.5934 10.8823 11.5934C11.9943 11.5934 12.7743 11.9814 13.2223 12.7574C13.6703 13.5254 13.8943 14.5974 13.8943 15.9734C13.8943 17.3734 13.6703 18.4614 13.2223 19.2374C12.7743 20.0134 11.9943 20.4014 10.8823 20.4014C9.76226 20.4014 8.97826 20.0134 8.53026 19.2374C8.08226 18.4614 7.85826 17.3734 7.85826 15.9734ZM12.8143 15.9734C12.8143 15.2774 12.7663 14.6894 12.6703 14.2094C12.5823 13.7214 12.3943 13.3294 12.1063 13.0334C11.8263 12.7374 11.4183 12.5894 10.8823 12.5894C10.3383 12.5894 9.92226 12.7374 9.63426 13.0334C9.35426 13.3294 9.16626 13.7214 9.07026 14.2094C8.98226 14.6894 8.93826 15.2774 8.93826 15.9734C8.93826 16.6934 8.98226 17.2974 9.07026 17.7854C9.16626 18.2734 9.35426 18.6654 9.63426 18.9614C9.92226 19.2574 10.3383 19.4054 10.8823 19.4054C11.4183 19.4054 11.8263 19.2574 12.1063 18.9614C12.3943 18.6654 12.5823 18.2734 12.6703 17.7854C12.7663 17.2974 12.8143 16.6934 12.8143 15.9734ZM20.2294 13.7894C20.0534 12.9014 19.5054 12.4574 18.5854 12.4574C17.8734 12.4574 17.3414 12.7334 16.9894 13.2854C16.6374 13.8294 16.4654 14.7294 16.4734 15.9854C16.6574 15.5694 16.9614 15.2454 17.3854 15.0134C17.8174 14.7734 18.2974 14.6534 18.8254 14.6534C19.6494 14.6534 20.3054 14.9094 20.7934 15.4214C21.2894 15.9334 21.5374 16.6414 21.5374 17.5454C21.5374 18.0894 21.4294 18.5774 21.2134 19.0094C21.0054 19.4414 20.6854 19.7854 20.2534 20.0414C19.8294 20.2974 19.3134 20.4254 18.7054 20.4254C17.8814 20.4254 17.2374 20.2414 16.7734 19.8734C16.3094 19.5054 15.9854 18.9974 15.8014 18.3494C15.6174 17.7014 15.5254 16.9014 15.5254 15.9494C15.5254 13.0134 16.5494 11.5454 18.5974 11.5454C19.3814 11.5454 19.9974 11.7574 20.4454 12.1814C20.8934 12.6054 21.1574 13.1414 21.2374 13.7894H20.2294ZM18.5974 15.5774C18.2534 15.5774 17.9294 15.6494 17.6254 15.7934C17.3214 15.9294 17.0734 16.1414 16.8814 16.4294C16.6974 16.7094 16.6054 17.0534 16.6054 17.4614C16.6054 18.0694 16.7814 18.5654 17.1334 18.9494C17.4854 19.3254 17.9894 19.5134 18.6454 19.5134C19.2054 19.5134 19.6494 19.3414 19.9774 18.9974C20.3134 18.6454 20.4814 18.1734 20.4814 17.5814C20.4814 16.9574 20.3214 16.4694 20.0014 16.1174C19.6814 15.7574 19.2134 15.5774 18.5974 15.5774Z" fill="white"/>
</svg>
