<svg width="401" height="335" viewBox="0 0 401 335" fill="none" xmlns="http://www.w3.org/2000/svg">
<path d="M46.0677 78.8237V179.443M175.134 311.68C177.238 310.458 178.816 307.488 178.816 305.217V262.419C178.816 259.973 177.063 257.178 175.134 255.956L138.308 234.469C136.204 233.246 132.872 233.246 130.767 234.469L93.9414 255.781C91.8371 257.004 90.2588 259.973 90.2588 262.244V305.042C90.2588 307.488 92.0124 310.283 93.9414 311.506L130.767 332.992C132.872 334.215 136.204 334.215 138.308 332.992L175.134 311.68ZM90.7849 258.576L178.29 308.885L90.7849 258.576ZM178.29 258.576L90.7849 308.885L178.29 258.576ZM134.625 233.421V334.04V233.421ZM86.5762 311.68C88.6806 310.458 90.2588 307.488 90.2588 305.217V262.419C90.2588 259.973 88.5052 257.178 86.5762 255.956L49.7503 234.469C47.6459 233.246 44.3141 233.246 42.2097 234.469L5.38377 255.781C3.27943 257.004 1.70117 259.973 1.70117 262.244V305.042C1.70117 307.488 3.45479 310.283 5.38377 311.506L42.2097 332.992C44.3141 334.215 47.6459 334.215 49.7503 332.992L86.5762 311.68ZM2.22726 258.576L89.7327 308.885L2.22726 258.576ZM89.7327 258.576L2.22726 308.885L89.7327 258.576ZM46.0677 233.421V334.04V233.421ZM352.249 311.68C354.354 310.458 355.932 307.488 355.932 305.217V262.419C355.932 259.973 354.178 257.178 352.249 255.956L315.423 234.469C313.319 233.246 309.987 233.246 307.883 234.469L271.057 255.781C268.952 257.004 267.374 259.973 267.374 262.244V305.042C267.374 307.488 269.128 310.283 271.057 311.506L307.883 332.992C309.987 334.215 313.319 334.215 315.423 332.992L352.249 311.68ZM267.9 258.576L355.406 308.885L267.9 258.576ZM355.406 258.576L267.9 308.885L355.406 258.576ZM311.741 233.421V334.04V233.421ZM396.44 234.469C398.545 233.246 400.123 230.277 400.123 228.006V185.208C400.123 182.762 398.369 179.967 396.44 178.744L359.614 157.258C357.51 156.035 354.178 156.035 352.074 157.258L315.248 178.744C313.144 179.967 311.565 182.937 311.565 185.208V227.831C311.565 230.277 313.319 233.072 315.248 234.294L352.074 255.781C354.178 257.004 357.51 257.004 359.614 255.781L396.44 234.469ZM312.267 181.365L399.772 231.674L312.267 181.365ZM399.597 181.365L312.091 231.674L399.597 181.365ZM355.932 156.21V256.829V156.21ZM219.325 79.6971C221.429 78.4743 223.008 75.5047 223.008 73.2337V30.2609C223.008 27.8153 221.254 25.0204 219.325 23.7975L182.499 2.31115C180.395 1.08834 177.063 1.08834 174.958 2.31115L138.133 23.7975C136.028 25.0204 134.45 27.99 134.45 30.2609V73.0591C134.45 75.5047 136.204 78.2996 138.133 79.5224L174.958 101.009C177.063 102.232 180.395 102.232 182.499 101.009L219.325 79.6971ZM135.151 26.5925L222.657 76.9022L135.151 26.5925ZM222.482 26.5925L135.151 76.9022L222.482 26.5925ZM178.816 1.43771V102.057V1.43771ZM263.692 157.083C265.796 155.86 267.374 152.891 267.374 150.62V107.647C267.374 105.201 265.62 102.406 263.692 101.184L226.866 79.6971C224.761 78.4743 221.429 78.4743 219.325 79.6971L182.499 101.184C180.395 102.406 178.816 105.376 178.816 107.647V150.445C178.816 152.891 180.57 155.686 182.499 156.908L219.325 178.395C221.429 179.618 224.761 179.618 226.866 178.395L263.692 157.083ZM179.343 103.979L266.848 154.288L179.343 103.979ZM266.848 103.979L179.343 154.288L266.848 103.979ZM223.183 78.8237V179.443V78.8237ZM175.134 157.083C177.238 155.86 178.816 152.891 178.816 150.62V107.647C178.816 105.201 177.063 102.406 175.134 101.184L138.308 79.6971C136.204 78.4743 132.872 78.4743 130.767 79.6971L93.9414 101.184C91.8371 102.406 90.2588 105.376 90.2588 107.647V150.445C90.2588 152.891 92.0124 155.686 93.9414 156.908L130.767 178.395C132.872 179.618 136.204 179.618 138.308 178.395L175.134 157.083ZM90.7849 103.979L178.29 154.288L90.7849 103.979ZM178.29 103.979L90.7849 154.288L178.29 103.979ZM134.625 78.8237V179.443V78.8237ZM86.5762 157.083C88.6806 155.86 90.2588 152.891 90.2588 150.62V107.647C90.2588 105.201 88.5052 102.406 86.5762 101.184L49.7503 79.6971C47.6459 78.4743 44.3141 78.4743 42.2097 79.6971L5.38377 101.184C3.27943 102.406 1.70117 105.376 1.70117 107.647V150.445C1.70117 152.891 3.45479 155.686 5.38377 156.908L42.2097 178.395C44.3141 179.618 47.6459 179.618 49.7503 178.395L86.5762 157.083ZM2.22726 103.979L89.7327 154.288L2.22726 103.979ZM89.7327 103.979L2.22726 154.288L89.7327 103.979Z" stroke="#F13826" stroke-width="1.5" stroke-miterlimit="10"/>
<path d="M130.768 234.469C132.872 233.246 134.45 230.277 134.45 228.006V185.208C134.45 182.762 132.697 179.967 130.768 178.744L93.9417 157.083C91.8373 155.86 88.5055 155.86 86.4011 157.083L49.5752 178.57C47.4708 179.792 45.8926 182.762 45.8926 185.033V227.831C45.8926 230.277 47.6462 233.072 49.5752 234.294L86.4011 255.781C88.5055 257.004 91.8373 257.004 93.9417 255.781L130.768 234.469Z" fill="#F13826"/>
</svg>
