<svg width="29" height="33" viewBox="0 0 29 33" fill="none" xmlns="http://www.w3.org/2000/svg">
<path d="M2.106 7.74824L2.10676 7.74779L13.7496 0.954701C13.7497 0.954618 13.7498 0.954534 13.75 0.95445C13.9899 0.815195 14.328 0.732422 14.6904 0.732422C15.0526 0.732422 15.3904 0.815056 15.6303 0.954098C15.6306 0.954299 15.631 0.9545 15.6313 0.954701L27.2648 7.79756C27.4879 7.94092 27.7245 8.19239 27.9058 8.50113C28.0891 8.81333 28.1904 9.14051 28.1904 9.41473V22.9466C28.1904 23.2004 28.0984 23.5311 27.9211 23.8491C27.7439 24.1668 27.5096 24.4214 27.2749 24.5578L15.6321 31.2957L15.6313 31.2961C15.3914 31.4355 15.0531 31.5184 14.6904 31.5184C14.3278 31.5184 13.9897 31.4356 13.7498 31.2963C13.7497 31.2962 13.7496 31.2962 13.7496 31.2961L2.11538 24.5081C1.89246 24.3647 1.65616 24.1134 1.47506 23.8049C1.29175 23.4927 1.19043 23.1656 1.19043 22.8913V9.3595C1.19043 9.10571 1.28244 8.77497 1.45978 8.45698C1.63698 8.13926 1.87122 7.88466 2.106 7.74824Z" stroke="#ED6C50"/>
<path d="M7.89927 15.697C7.89927 14.321 8.12327 13.249 8.57127 12.481C9.01927 11.705 9.80327 11.317 10.9233 11.317C12.0353 11.317 12.8153 11.705 13.2633 12.481C13.7113 13.249 13.9353 14.321 13.9353 15.697C13.9353 17.097 13.7113 18.185 13.2633 18.961C12.8153 19.737 12.0353 20.125 10.9233 20.125C9.80327 20.125 9.01927 19.737 8.57127 18.961C8.12327 18.185 7.89927 17.097 7.89927 15.697ZM12.8553 15.697C12.8553 15.001 12.8073 14.413 12.7113 13.933C12.6233 13.445 12.4353 13.053 12.1473 12.757C11.8673 12.461 11.4593 12.313 10.9233 12.313C10.3793 12.313 9.96327 12.461 9.67527 12.757C9.39527 13.053 9.20727 13.445 9.11127 13.933C9.02327 14.413 8.97927 15.001 8.97927 15.697C8.97927 16.417 9.02327 17.021 9.11127 17.509C9.20727 17.997 9.39527 18.389 9.67527 18.685C9.96327 18.981 10.3793 19.129 10.9233 19.129C11.4593 19.129 11.8673 18.981 12.1473 18.685C12.4353 18.389 12.6233 17.997 12.7113 17.509C12.8073 17.021 12.8553 16.417 12.8553 15.697ZM20.9664 12.397H16.7544V15.133C16.9384 14.877 17.2104 14.669 17.5704 14.509C17.9304 14.341 18.3184 14.257 18.7344 14.257C19.3984 14.257 19.9384 14.397 20.3544 14.677C20.7704 14.949 21.0664 15.305 21.2424 15.745C21.4264 16.177 21.5184 16.637 21.5184 17.125C21.5184 17.701 21.4104 18.217 21.1944 18.673C20.9784 19.129 20.6464 19.489 20.1984 19.753C19.7584 20.017 19.2104 20.149 18.5544 20.149C17.7144 20.149 17.0344 19.933 16.5144 19.501C15.9944 19.069 15.6784 18.493 15.5664 17.773H16.6344C16.7384 18.229 16.9584 18.585 17.2944 18.841C17.6304 19.097 18.0544 19.225 18.5664 19.225C19.1984 19.225 19.6744 19.037 19.9944 18.661C20.3144 18.277 20.4744 17.773 20.4744 17.149C20.4744 16.525 20.3144 16.045 19.9944 15.709C19.6744 15.365 19.2024 15.193 18.5784 15.193C18.1544 15.193 17.7824 15.297 17.4624 15.505C17.1504 15.705 16.9224 15.981 16.7784 16.333H15.7464V11.437H20.9664V12.397Z" fill="white"/>
</svg>
